<svg width="64" height="64" viewBox="0 0 64 64" fill="none" xmlns="http://www.w3.org/2000/svg">
  <rect width="64" height="64" rx="16" fill="white"/>
  <path d="M12 46.5V18.2L28.8 12L45.6 18.2V46.5L28.8 53L12 46.5Z" fill="#F7C948" opacity="0.18"/>
  <path d="M16 42.8V19.8L28.8 15.1L41.6 19.8V42.8L28.8 47.8L16 42.8Z" fill="#F59E0B" opacity="0.9"/>
  <path d="M28.8 15.1V47.8" stroke="#163C7A" stroke-width="2.8" stroke-linecap="round"/>
  <path d="M16 19.8L28.8 24.8L41.6 19.8" stroke="#163C7A" stroke-width="2.8" stroke-linecap="round" stroke-linejoin="round"/>
  <path d="M18 29.2C21.6 27.1 25.6 25.8 28.8 25.8C32 25.8 36 27.1 39.6 29.2" stroke="#3B82F6" stroke-width="2.2" stroke-linecap="round"/>
  <path d="M24.1 38.4C26.2 37.2 28.1 36.8 28.8 36.8C29.5 36.8 31.4 37.2 33.5 38.4" stroke="#F97316" stroke-width="2.2" stroke-linecap="round"/>
  <circle cx="43.8" cy="13.2" r="2.1" fill="#F59E0B"/>
  <path d="M41.2 12.9L44.7 8.7L48.2 12.9L44.7 17.1L41.2 12.9Z" fill="#F59E0B"/>
</svg>